<?xml version="1.0" encoding="iso-8859-1"?>
<!-- Generator: Adobe Illustrator 19.0.0, SVG Export Plug-In . SVG Version: 6.00 Build 0)  -->
<svg version="1.1" id="Capa_1" xmlns="http://www.w3.org/2000/svg" xmlns:xlink="http://www.w3.org/1999/xlink" x="0px" y="0px"
	 viewBox="0 0 511.24 511.24" style="enable-background:new 0 0 511.24 511.24;" xml:space="preserve">
<g>
	<path style="fill:#ADB3BA;" d="M132.42,511.24c40.533-133.333,107.733-358.4,107.733-360.533c-1.067-4.267-5.333-7.467-5.333-7.467
		l-7.467,8.533L116.42,511.24H132.42z"/>
	<path style="fill:#ADB3BA;" d="M225.22,178.44c0-1.067,0-1.067-1.067-2.133l0,0l-48-3.2v7.467v4.267l46.933,2.133
		C224.153,182.706,225.22,180.573,225.22,178.44z"/>
	<path style="fill:#ADB3BA;" d="M188.953,302.173c0-1.067,0-1.067-1.067-2.133l0,0l-48-3.2v7.467v4.267l46.933,2.133
		C187.887,306.44,187.887,304.306,188.953,302.173z"/>
	<path style="fill:#ADB3BA;" d="M148.42,445.106c0-1.067,0-1.067-1.067-2.133l0,0l-48-3.2v7.467v4.267l46.933,2.133
		C147.353,449.373,148.42,447.24,148.42,445.106z"/>
</g>
<path style="fill:#E8EAE9;" d="M238.02,154.973L130.287,511.24h4.267l105.6-355.2c1.067-4.267-1.067-9.6-5.333-11.733h-1.067
	C238.02,146.44,239.087,150.706,238.02,154.973z"/>
<g>
	<path style="fill:#ADB3BA;" d="M363.887,511.24c-19.2-60.8-113.067-365.867-115.2-368c-3.2-3.2-8.533-3.2-8.533-3.2l-1.067,11.733
		L346.82,511.24H363.887z"/>
	<polygon style="fill:#ADB3BA;" points="290.287,481.373 348.953,468.573 345.753,460.04 288.153,470.706 	"/>
	<polygon style="fill:#ADB3BA;" points="271.087,402.44 327.62,396.04 325.487,387.506 267.887,391.773 	"/>
	<polygon style="fill:#ADB3BA;" points="300.953,316.04 249.753,321.373 247.62,310.706 298.82,306.44 	"/>
	<polygon style="fill:#ADB3BA;" points="283.887,245.64 232.687,250.973 229.487,240.306 280.687,237.106 	"/>
	<polygon style="fill:#ADB3BA;" points="259.353,179.506 215.62,184.84 212.42,174.173 256.153,170.973 	"/>
</g>
<path style="fill:#E8EAE9;" d="M249.753,146.44l112,364.8h5.333l-115.2-364.8c-1.067-4.267-6.4-7.467-10.667-6.4h-1.067
	C244.42,140.04,247.62,142.173,249.753,146.44z"/>
<path style="fill:#ADB3BA;" d="M88.687,511.24c35.2-123.733,103.467-368,103.467-369.067c-1.067-4.267-5.333-7.467-5.333-7.467
	l-7.467,8.533l-104.533,368H88.687z"/>
<path style="fill:#E8EAE9;" d="M191.087,146.44L87.62,511.24h2.133L193.22,147.506c1.067-4.267-1.067-9.6-5.333-11.733h-1.067
	C190.02,137.906,192.153,142.173,191.087,146.44z"/>
<path style="fill:#CED6E0;" d="M294.553,511.24c-13.867-57.6-90.667-373.333-92.8-376.533c-2.133-3.2-8.533-3.2-8.533-3.2
	l-2.133,11.733l87.467,368H294.553z"/>
<path style="fill:#E8EAE9;" d="M202.82,138.973l89.6,372.267h5.333l-93.867-372.267c-1.067-4.267-5.333-7.467-10.667-7.467h-1.067
	C197.487,131.506,201.753,134.706,202.82,138.973z"/>
<path style="fill:#FFD15C;" d="M233.753,212.573c0,2.133-7.467,12.8-7.467,12.8l-1.067-5.333c0,0-8.533,5.333-9.6,5.333
	c-2.133,1.067-6.4,1.067-6.4-2.133c0-2.133,1.067-2.133,2.133-2.133c-1.067,0-1.067,0-2.133-2.133c-1.067-2.133,0-4.267,0-4.267
	s-1.067,0-2.133-2.133c-1.067-1.067,0-2.133,1.067-3.2c0,0-1.067,0-1.067-1.067c-1.067-2.133,2.133-6.4,2.133-6.4
	c1.067-3.2,2.133-3.2,4.267-6.4c2.133-3.2,5.333-8.533,5.333-8.533l19.2-1.067c0,0-2.133,9.6-2.133,11.733
	C233.753,201.906,233.753,210.44,233.753,212.573z"/>
<g>
	<path style="fill:#415A6B;" d="M306.287,354.44c0,0,5.333,5.333,5.333,9.6c0,4.267-4.267,10.667-4.267,10.667l-5.333-1.067
		L306.287,354.44z"/>
	<path style="fill:#415A6B;" d="M279.62,388.573c0,1.067,0,2.133,2.133,2.133s7.467-1.067,10.667,1.067
		c4.267,2.133,6.4,3.2,9.6,2.133c3.2-2.133,7.467-3.2,4.267-10.667s-2.133-6.4-2.133-6.4L279.62,388.573
		C280.687,387.506,279.62,388.573,279.62,388.573z"/>
</g>
<path style="fill:#344A5E;" d="M298.82,344.84c0,0,4.267,20.267,3.2,25.6c-1.067,5.333-19.2,6.4-19.2,6.4s-6.4,4.267-3.2,10.667
	c0,0,10.667-1.067,16,0c5.333,1.067,9.6,3.2,10.667,0c1.067-4.267-2.133-10.667-1.067-13.867c1.067-3.2,4.267-11.733,3.2-16
	C307.353,353.373,307.353,345.906,298.82,344.84z"/>
<path style="fill:#415A6B;" d="M303.087,464.306v1.067c0,1.067,1.067,2.133,2.133,2.133c2.133,0,4.267-1.067,7.467,0
	c6.4,1.067,11.733,3.2,16,3.2s6.4-2.133,6.4-7.467s0-5.333,0-5.333L303.087,464.306z"/>
<path style="fill:#344A5E;" d="M335.087,454.706c0,0,0,7.467-1.067,10.667c-1.067,3.2-5.333,3.2-9.6,2.133s-14.933-5.333-21.333-3.2
	c0,0,1.067-4.267,4.267-6.4s4.267-19.2,4.267-19.2L335.087,454.706z"/>
<path style="fill:#415A6B;" d="M272.153,74.973l-10.667-5.333c0,0-2.133-2.133-3.2,5.333c-1.067,6.4-1.067,10.667-5.333,13.867
	c-4.267,3.2-6.4,6.4-8.533,10.667c-2.133,4.267-6.4,12.8-8.533,16c-2.133,3.2-4.267,5.333-5.333,8.533
	c-1.067,3.2-5.333,8.533-5.333,11.733c-1.067,3.2,0,4.267-3.2,8.533c-3.2,4.267-5.333,9.6-6.4,20.267
	c-1.067,10.667-1.067,24.533-1.067,24.533s17.067-3.2,20.267,6.4c0,0,4.267-16,6.4-21.333c2.133-5.333,8.533-20.267,9.6-23.467
	c1.067-3.2,19.2-26.667,19.2-26.667L272.153,74.973z"/>
<path style="fill:#2E4556;" d="M358.553,246.706c0,0,8.533-5.333,21.333-8.533c12.8-3.2,22.4,4.267,29.867,6.4
	c7.467,2.133,9.6,2.133,9.6,2.133l-17.067-45.867l-29.867-53.333l-41.6,24.533L358.553,246.706z"/>
<path style="fill:#415A6B;" d="M361.753,184.84c0,0,7.467,29.867,4.267,67.2s-9.6,114.133-9.6,126.933
	c-1.067,12.8-5.333,42.667-7.467,51.2c-2.133,8.533-12.8,28.8-12.8,28.8s-4.267-6.4-12.8-7.467
	c-9.6-1.067-14.933,1.067-14.933,1.067s-1.067-9.6,2.133-20.267c3.2-10.667,5.333-29.867,6.4-42.667
	c1.067-12.8,2.133-51.2,1.067-70.4c-1.067-19.2-3.2-46.933-4.267-50.133c-1.067-3.2-2.133-5.333-2.133-5.333
	s-11.733,24.533-21.333,35.2c0,0,1.067,5.333,1.067,8.533c0,4.267-1.067,7.467-1.067,7.467s2.133,3.2,3.2,7.467
	c0,4.267-1.067,6.4,1.067,9.6c1.067,2.133,6.4,9.6,8.533,20.267c2.133,10.667,1.067,19.2,1.067,19.2s-1.067,4.267-7.467,5.333
	c-6.4,1.067-12.8,1.067-12.8,1.067s-5.333-13.867-7.467-22.4s-8.533-14.933-12.8-21.333c-4.267-5.333-14.933-18.133-13.867-29.867
	c1.067-11.733,3.2-21.333,5.333-28.8c3.2-7.467,4.267-25.6,6.4-32c2.133-7.467,17.067-50.133,17.067-50.133l-2.133-12.8
	L361.753,184.84L361.753,184.84z"/>
<path style="fill:#FFD15C;" d="M358.553,36.573c0-2.133-6.4-8.533-6.4-8.533l2.133-2.133c-1.067-8.533-9.6-20.267-9.6-20.267
	c-39.467-2.133-35.2,44.8-35.2,49.067c0,4.267-3.2,18.133-3.2,18.133l32,16c0-3.2,0-5.333,0-8.533c0-1.067,0-1.067,0-2.133
	c0-4.267,0-8.533,1.067-9.6c2.133-3.2,4.267-4.267,7.467-5.333c3.2-1.067,10.667-2.133,9.6-6.4c0-3.2-1.067-3.2,0-5.333
	c1.067-3.2-1.067-3.2-1.067-3.2s2.133,0,1.067-2.133c-1.067-2.133-1.067-5.333-1.067-5.333S358.553,39.773,358.553,36.573z"/>
<path style="fill:#F3705A;" d="M315.887,69.64l11.733,4.267h1.067h19.2c0,0,28.8,97.067,30.933,102.4
	c0,1.067-10.667-33.067-11.733-30.933c-2.133,6.4,4.267,46.933-3.2,48c-26.667,1.067-53.333-1.067-80-5.333L298.82,68.573
	L315.887,69.64z"/>
<path style="fill:#2E4556;" d="M296.687,127.24c0,0-3.2,32-5.333,43.733s-25.6,68.267-29.867,75.733s-5.333,14.933-5.333,14.933
	s-4.267-16,0-25.6c4.267-9.6,7.467-56.533,9.6-61.867c1.067-6.4-1.067-26.667-1.067-43.733s-4.267-59.733-4.267-59.733
	s32-10.667,40.533-7.467L296.687,127.24z"/>
<path style="fill:#FFD15C;" d="M384.153,22.706c0,0,0-4.267,1.067-5.333c2.133-1.067,3.2-1.067,6.4,3.2L384.153,22.706z"/>
<g>
	<path style="fill:#2E4556;" d="M361.753,28.04c-1.067,0-2.133,2.133-1.067,4.267c0,2.133,1.067,3.2,2.133,3.2l16-1.067
		c1.067,0,2.133-2.133,2.133-4.267s-1.067-4.267-3.2-4.267L361.753,28.04z"/>
	<path style="fill:#2E4556;" d="M369.22,24.84c-2.133,0-3.2,3.2-2.133,6.4c0,4.267,2.133,5.333,4.267,5.333l27.733-2.133
		c2.133,0,3.2-3.2,3.2-7.467s-2.133-7.467-4.267-6.4L369.22,24.84z"/>
</g>
<ellipse transform="matrix(0.9935 -0.1134 0.1134 0.9935 -0.5334 45.3097)" style="fill:#344A5E;" cx="397.981" cy="27.344" rx="3.2" ry="7.466"/>
<ellipse transform="matrix(0.9935 -0.1134 0.1134 0.9935 -0.6351 45.2293)" style="fill:#77B5F7;" cx="397.224" cy="28.197" rx="2.133" ry="5.333"/>
<ellipse transform="matrix(0.9935 -0.1134 0.1134 0.9935 -0.4116 45.4043)" style="fill:#FFFFFF;" cx="398.874" cy="26.32" rx="1.067" ry="2.133"/>
<path style="fill:#415A6B;" d="M398.02,21.64L398.02,21.64c1.067,0,3.2,2.133,3.2,6.4s-1.067,6.4-2.133,6.4l0,0
	c-1.067,0-3.2-2.133-3.2-6.4c0-2.133,0-3.2,0-5.333C395.887,21.64,396.953,21.64,398.02,21.64L398.02,21.64 M398.02,20.573
	L398.02,20.573c-2.133,0-3.2,3.2-3.2,7.467s2.133,6.4,4.267,6.4l0,0c2.133,0,3.2-3.2,3.2-7.467
	C401.22,23.773,400.153,20.573,398.02,20.573L398.02,20.573z"/>
<path style="fill:#2E4556;" d="M347.887,22.706c-1.067,0-2.133,2.133-1.067,4.267c0,2.133,1.067,3.2,2.133,3.2l16-1.067
	c1.067,0,2.133-2.133,2.133-4.267s-1.067-4.267-3.2-4.267L347.887,22.706z"/>
<g>
	<path style="fill:#344A5E;" d="M355.353,19.506c-2.133,0-3.2,3.2-2.133,6.4c0,4.267,2.133,5.333,4.267,5.333l26.667-1.067
		c2.133,0,3.2-3.2,3.2-7.467s-2.133-7.467-4.267-6.4L355.353,19.506z"/>

		<ellipse transform="matrix(0.9935 -0.1134 0.1134 0.9935 -0.1648 43.6993)" style="fill:#344A5E;" cx="384.011" cy="23.298" rx="3.2" ry="7.466"/>
</g>
<ellipse transform="matrix(0.9935 -0.1134 0.1134 0.9935 -0.1477 43.5875)" style="fill:#77B5F7;" cx="383.037" cy="23.092" rx="2.133" ry="5.333"/>
<ellipse transform="matrix(0.9935 -0.1134 0.1134 0.9935 0.0763 43.7698)" style="fill:#FFFFFF;" cx="384.751" cy="21.215" rx="1.067" ry="2.133"/>
<path style="fill:#415A6B;" d="M383.087,16.306L383.087,16.306c1.067,0,3.2,2.133,3.2,6.4s-1.067,6.4-2.133,6.4l0,0
	c-1.067,0-3.2-2.133-3.2-6.4c0-2.133,0-3.2,0-5.333C382.02,17.373,382.02,16.306,383.087,16.306L383.087,16.306 M383.087,15.24
	L383.087,15.24c-2.133,0-3.2,3.2-3.2,7.467s2.133,6.4,4.267,6.4l0,0c2.133,0,3.2-3.2,3.2-7.467
	C387.353,18.44,385.22,15.24,383.087,15.24L383.087,15.24z"/>
<g>
	<path style="fill:#FFD15C;" d="M368.153,37.64l-3.2-5.333c0,0,4.267-2.133,7.467,3.2l2.133,1.067l20.267-1.067l16,16
		l-13.867,10.667l-13.867-16c-1.067-1.067-2.133-1.067-3.2-2.133l-3.2-1.067c-1.067,0-3.2-1.067-4.267-2.133L368.153,37.64z"/>
	<path style="fill:#FFD15C;" d="M372.42,17.373c0,0-1.067-1.067-1.067-2.133s6.4,0,7.467,1.067L372.42,17.373z"/>
</g>
<path style="fill:#344A5E;" d="M309.487,55.773c0,0,4.267-5.333,4.267-13.867s1.067-11.733,4.267-11.733
	c3.2,0,4.267,4.267,4.267,4.267l5.333-3.2c0,0-1.067-4.267,1.067-7.467c3.2-3.2,4.267-6.4,3.2-8.533s11.733-8.533,18.133,2.133
	c0,0,4.267-7.467-2.133-12.8c-6.4-5.333-19.2-6.4-30.933-1.067s-14.933,11.733-16,17.067s-2.133,16,1.067,22.4
	C305.22,49.373,306.287,53.64,309.487,55.773z"/>
<path style="fill:#FFD15C;" d="M319.087,41.906c-2.133,0-5.333-2.133-5.333-6.4s1.067-7.467,4.267-7.467
	c2.133,0,5.333,2.133,5.333,6.4S322.287,41.906,319.087,41.906z"/>
<path style="fill:#F7B64C;" d="M331.887,53.64c-8.533-5.333-8.533-5.333-8.533-5.333s6.4,11.733,19.2,18.133
	c1.067-1.067,3.2-2.133,5.333-2.133c2.133-1.067,5.333-1.067,7.467-3.2C350.02,60.04,338.287,57.906,331.887,53.64z"/>
<path style="fill:#FFFFFF;" d="M384.153,47.24c0,0,16-9.6,16-11.733l7.467,11.733l-18.133,8.533L384.153,47.24z"/>
<path style="fill:#415A6B;" d="M382.02,49.373c0,0,18.133-5.333,22.4-12.8c0,0,10.667,17.067,16,24.533
	c5.333,7.467,16,29.867,16,33.067c0,3.2-1.067,5.333-3.2,8.533s-28.8,11.733-36.267,12.8c-6.4,1.067-7.467,1.067-7.467,1.067
	l-19.2-36.267c0,0,27.733,1.067,29.867,2.133s0-2.133,0-4.267c0-2.133-5.333-10.667-5.333-12.8S382.02,49.373,382.02,49.373z"/>
<path style="fill:#344A5E;" d="M366.02,159.24C366.02,159.24,367.087,159.24,366.02,159.24c2.133,4.267,14.933,35.2,21.333,45.867
	c7.467,11.733,29.867,32,29.867,41.6c0,0,0-11.733-3.2-27.733c-3.2-16-13.867-67.2-16-76.8c-2.133-9.6-8.533-35.2-10.667-42.667
	c-2.133-7.467-9.6-29.867-13.867-34.133l-34.133,5.333l18.133,66.133C358.553,135.773,362.82,153.906,366.02,159.24z"/>
<g>
	<path style="fill:#F3F3F3;" d="M340.42,67.506l-3.2,22.4c0,0-1.067-12.8-8.533-16C329.753,73.906,335.087,72.84,340.42,67.506z"/>
	<path style="fill:#F3F3F3;" d="M328.687,73.906c0,0-1.067-1.067-7.467,3.2c-6.4,4.267-8.533,7.467-8.533,7.467
		s-8.533-13.867-8.533-19.2s5.333-10.667,5.333-10.667s3.2,7.467,11.733,11.733C329.753,70.706,328.687,73.906,328.687,73.906z"/>
</g>
<g>
	<path style="fill:#415A6B;" d="M307.353,58.973c0,0-9.6,8.533-20.267,11.733l5.333,6.4l-8.533,3.2c0,0,6.4,54.4,8.533,62.933
		c1.067,7.467,1.067,21.333,0,27.733c0,0,5.333-13.867,6.4-37.333S304.153,67.506,307.353,58.973z"/>
	<path style="fill:#415A6B;" d="M340.42,69.64l13.867,9.6l-3.2,3.2h8.533c0,0,4.267,32,4.267,43.733s-1.067,17.067,1.067,23.467
		s3.2,8.533,3.2,8.533s-7.467-11.733-9.6-22.4c-2.133-10.667-17.067-53.333-17.067-53.333S339.353,73.906,340.42,69.64z"/>
</g>
<ellipse style="fill:#E8EAE9;" cx="192.153" cy="141.106" rx="12.8" ry="12.8"/>
<ellipse style="fill:#CED6E0;" cx="192.153" cy="141.106" rx="9.6" ry="10.667"/>
<g>
</g>
<g>
</g>
<g>
</g>
<g>
</g>
<g>
</g>
<g>
</g>
<g>
</g>
<g>
</g>
<g>
</g>
<g>
</g>
<g>
</g>
<g>
</g>
<g>
</g>
<g>
</g>
<g>
</g>
</svg>
